<svg width="128" height="128" viewBox="0 0 128 128" fill="none" xmlns="http://www.w3.org/2000/svg">
<rect width="128" height="128" rx="30" fill="url(#paint0_linear_205_10)"/>
<path d="M74.396 54.64C73.4629 52.9211 72.1123 51.6197 70.3443 50.7357C68.6254 49.8026 66.5873 49.336 64.23 49.336C60.1538 49.336 56.8879 50.6866 54.4323 53.3877C51.9768 56.0397 50.749 59.6002 50.749 64.0693C50.749 68.8331 52.0259 72.5656 54.5797 75.2667C57.1826 77.9187 60.7431 79.2447 65.2613 79.2447C68.3553 79.2447 70.9582 78.4589 73.07 76.8873C75.2309 75.3158 76.8024 73.0567 77.7847 70.11H61.799V60.828H89.203V72.541C88.2699 75.6841 86.6738 78.6062 84.4147 81.3073C82.2047 84.0084 79.3808 86.1939 75.943 87.8637C72.5052 89.5334 68.6254 90.3683 64.3037 90.3683C59.1961 90.3683 54.6288 89.2633 50.6017 87.0533C46.6237 84.7942 43.5051 81.6757 41.246 77.6977C39.036 73.7197 37.931 69.1769 37.931 64.0693C37.931 58.9618 39.036 54.419 41.246 50.441C43.5051 46.4139 46.6237 43.2953 50.6017 41.0853C54.5797 38.8262 59.1224 37.6967 64.23 37.6967C70.418 37.6967 75.6238 39.1946 79.8473 42.1903C84.12 45.1861 86.9439 49.336 88.319 54.64H74.396Z" fill="url(#paint1_linear_205_10)"/>
<defs>
<linearGradient id="paint0_linear_205_10" x1="64" y1="43" x2="50" y2="166" gradientUnits="userSpaceOnUse">
<stop stop-color="#000C1F"/>
<stop offset="1" stop-color="#13005F"/>
</linearGradient>
<linearGradient id="paint1_linear_205_10" x1="64" y1="9" x2="40.5" y2="103" gradientUnits="userSpaceOnUse">
<stop stop-color="white"/>
<stop offset="1" stop-color="white" stop-opacity="0"/>
</linearGradient>
</defs>
</svg>
