<svg width="28" height="28" viewBox="0 0 28 28" fill="none" xmlns="http://www.w3.org/2000/svg">
<path d="M14 7.28C12.6709 7.28 11.3717 7.67412 10.2666 8.41253C9.16147 9.15093 8.30015 10.2004 7.79153 11.4284C7.28291 12.6563 7.14983 14.0075 7.40912 15.311C7.66842 16.6146 8.30843 17.8119 9.24824 18.7518C10.1881 19.6916 11.3854 20.3316 12.689 20.5909C13.9925 20.8502 15.3437 20.7171 16.5716 20.2085C17.7996 19.6999 18.8491 18.8385 19.5875 17.7334C20.3259 16.6283 20.72 15.3291 20.72 14C20.72 12.2177 20.012 10.5085 18.7518 9.24824C17.4915 7.988 15.7823 7.28 14 7.28ZM14 18.48C13.1139 18.48 12.2478 18.2173 11.511 17.725C10.7743 17.2327 10.2001 16.533 9.86102 15.7144C9.52194 14.8958 9.43322 13.995 9.60608 13.126C9.77894 12.257 10.2056 11.4587 10.8322 10.8322C11.4587 10.2056 12.257 9.77894 13.126 9.60608C13.995 9.43322 14.8958 9.52194 15.7144 9.86102C16.533 10.2001 17.2327 10.7743 17.725 11.511C18.2173 12.2478 18.48 13.1139 18.48 14C18.4763 15.187 18.0031 16.3244 17.1638 17.1638C16.3244 18.0031 15.187 18.4763 14 18.48ZM20.16 0H7.84C5.7607 0 3.76657 0.825998 2.29628 2.29628C0.825998 3.76657 0 5.7607 0 7.84V20.16C0 22.2393 0.825998 24.2334 2.29628 25.7037C3.76657 27.174 5.7607 28 7.84 28H20.16C22.2393 28 24.2334 27.174 25.7037 25.7037C27.174 24.2334 28 22.2393 28 20.16V7.84C28 5.7607 27.174 3.76657 25.7037 2.29628C24.2334 0.825998 22.2393 0 20.16 0ZM25.76 20.16C25.76 20.8954 25.6152 21.6236 25.3337 22.303C25.0523 22.9825 24.6398 23.5998 24.1198 24.1198C23.5998 24.6398 22.9825 25.0523 22.303 25.3337C21.6236 25.6152 20.8954 25.76 20.16 25.76H7.84C7.1046 25.76 6.3764 25.6152 5.69697 25.3337C5.01755 25.0523 4.40021 24.6398 3.8802 24.1198C3.36019 23.5998 2.9477 22.9825 2.66627 22.303C2.38485 21.6236 2.24 20.8954 2.24 20.16V7.84C2.24 6.35479 2.83 4.93041 3.8802 3.8802C4.93041 2.83 6.35479 2.24 7.84 2.24H20.16C20.8954 2.24 21.6236 2.38485 22.303 2.66627C22.9825 2.9477 23.5998 3.36019 24.1198 3.8802C24.6398 4.40021 25.0523 5.01755 25.3337 5.69697C25.6152 6.3764 25.76 7.1046 25.76 7.84V20.16ZM22.96 6.72C22.96 7.05227 22.8615 7.37708 22.6769 7.65336C22.4923 7.92963 22.2299 8.14496 21.9229 8.27212C21.6159 8.39927 21.2781 8.43254 20.9522 8.36772C20.6264 8.3029 20.327 8.14289 20.0921 7.90794C19.8571 7.67299 19.6971 7.37364 19.6323 7.04775C19.5675 6.72186 19.6007 6.38407 19.7279 6.07709C19.855 5.77011 20.0704 5.50773 20.3466 5.32313C20.6229 5.13853 20.9477 5.04 21.28 5.04C21.7256 5.04 22.1529 5.217 22.4679 5.53206C22.783 5.84712 22.96 6.27444 22.96 6.72Z" fill="white"/>
</svg>
