<svg width="100" height="100" viewBox="0 0 100 100" fill="none" xmlns="http://www.w3.org/2000/svg">
<g clip-path="url(#clip0_21_41)">
<path d="M83.3984 0H16.6016C7.43277 0 0 7.61116 0 17V82.84C0 92.2288 7.43277 99.84 16.6016 99.84H83.3984C92.5672 99.84 100 92.2288 100 82.84V17C100 7.61116 92.5672 0 83.3984 0Z" fill="url(#paint0_linear_21_41)"/>
<path d="M22.5172 70.014V26.1188C22.5172 25.7988 22.6516 25.638 22.9199 25.638L23.3446 25.6368L24.0703 25.6288L25.0789 25.6084L28.4578 25.5352L32.0809 25.4664C33.3551 25.444 34.6184 25.432 35.8707 25.432C39.2692 25.432 42.1313 25.8672 44.4574 26.7372C46.5557 27.464 48.4694 28.6608 50.059 30.2404C51.4066 31.6097 52.448 33.2621 53.1114 35.0836C53.7389 36.8561 54.0569 38.7278 54.0508 40.6132C54.0508 44.2776 53.2231 47.3 51.5684 49.6808C49.9499 52.0035 47.6925 53.7798 45.084 54.7832L44.8602 54.8672C42.1364 55.9076 39.1199 56.2836 35.8117 56.3072L35.2977 56.3088L34.5348 56.3048L34.15 56.2992L33.7211 56.2888L33.4625 56.2784L33.3055 56.27L32.9192 56.2556L32.4469 56.2456L31.736 56.2404L31.5778 56.24V69.9452C31.5895 70.0292 31.582 70.1149 31.5558 70.1954C31.5296 70.2759 31.4855 70.3491 31.4269 70.4091C31.3683 70.4691 31.2968 70.5143 31.2182 70.5411C31.1395 70.568 31.0559 70.5756 30.9739 70.5636H22.9871C22.6735 70.5636 22.5172 70.3812 22.5172 70.014ZM31.5781 33.8812V48.198C32.1135 48.2422 32.6504 48.2652 33.1875 48.2668H35.4016C36.9281 48.2616 38.4457 48.0288 39.9067 47.576L40.1981 47.4828C41.5272 47.0785 42.7149 46.2916 43.6196 45.2156C44.4602 44.2004 44.8957 42.8016 44.9258 41.0188L44.9278 40.8192C44.9629 39.4904 44.6254 38.1792 43.9547 37.0412C43.2498 35.9406 42.231 35.0891 41.0367 34.6024C39.4773 33.9818 37.8117 33.6898 36.1395 33.744L35.2887 33.7464L34.752 33.7512L34.2399 33.758L33.5172 33.7724L32.9899 33.7876L32.716 33.798L32.35 33.8156L32.0383 33.8352L31.8606 33.8496L31.7071 33.8648L31.6395 33.8728L31.5781 33.8812ZM79.9883 45.5948C78.8181 44.979 77.5768 44.5164 76.2938 44.218L75.9969 44.1524C74.5854 43.8207 73.1444 43.638 71.6965 43.6072L71.3348 43.6028C70.486 43.5793 69.6384 43.6834 68.8192 43.912C68.2976 44.0308 67.834 44.3349 67.5106 44.7704C67.292 45.1189 67.1756 45.5242 67.1754 45.9384C67.1877 46.3401 67.3291 46.7263 67.5778 47.0372C67.9338 47.4636 68.3618 47.8209 68.8414 48.092L68.9867 48.1708C69.9432 48.6982 70.9287 49.1683 71.9383 49.5788C74.1897 50.3506 76.3409 51.4002 78.3446 52.7044C79.7097 53.5866 80.8394 54.8024 81.6321 56.2424C82.2984 57.6057 82.6322 59.1141 82.6047 60.6384C82.6449 62.6515 82.083 64.6291 80.9946 66.306C79.8293 68.008 78.2109 69.3312 76.3321 70.118C74.3645 71.0036 71.9481 71.4608 69.0832 71.4908L68.7856 71.4924C67.0096 71.5108 65.2361 71.3517 63.4903 71.0172L63.1168 70.9428C61.6469 70.6668 60.2161 70.2053 58.8571 69.5688C58.7205 69.4966 58.6051 69.3886 58.5226 69.2557C58.4401 69.1229 58.3935 68.9701 58.3875 68.8128V61.3256C58.3795 61.2529 58.3909 61.1794 58.4204 61.1128C58.45 61.0462 58.4967 60.9891 58.5555 60.9476C58.6131 60.9143 58.6792 60.8997 58.7451 60.9059C58.811 60.912 58.8735 60.9386 58.9242 60.982C60.5292 61.9511 62.2718 62.658 64.0895 63.0772C65.6917 63.4885 67.3351 63.7076 68.9867 63.73C70.5516 63.73 71.7031 63.5236 72.4414 63.1116C72.7748 62.9553 73.0568 62.7035 73.2533 62.3865C73.4497 62.0695 73.5523 61.701 73.5485 61.3256C73.5485 60.7312 73.2129 60.1584 72.5422 59.6084C72.261 59.378 71.8574 59.1272 71.3324 58.8564L71.0813 58.73L70.8133 58.6008L70.6727 58.5352L70.3782 58.4016C70.327 58.3788 70.2759 58.3561 70.2246 58.3336L69.9043 58.196L69.7375 58.126L69.3914 57.984L69.2117 57.912L68.8395 57.7652L68.45 57.616C66.3436 56.8653 64.3463 55.8254 62.5129 54.5248C61.2017 53.5909 60.122 52.3559 59.3602 50.9184C58.7005 49.5648 58.3669 48.0691 58.3875 46.5564C58.3838 44.7389 58.8713 42.9557 59.7961 41.4044C60.8508 39.6964 62.3649 38.3364 64.1567 37.4892C66.1242 36.4824 68.5836 35.9784 71.5356 35.9776C73.2645 35.9634 74.9918 36.0898 76.7012 36.3556C77.939 36.5164 79.1491 36.8515 80.2973 37.3516C80.4821 37.406 80.6309 37.5456 80.6996 37.7296C80.7453 37.8972 80.7676 38.0704 80.7668 38.2448V45.1828C80.7766 45.3468 80.6996 45.504 80.5657 45.5948C80.476 45.6405 80.3771 45.6642 80.277 45.6642C80.1768 45.6642 80.078 45.6405 79.9883 45.5948Z" fill="white"/>
</g>
<defs>
<linearGradient id="paint0_linear_21_41" x1="1.21337" y1="92.8963" x2="107.688" y2="77.403" gradientUnits="userSpaceOnUse">
<stop stop-color="#0052CD"/>
<stop offset="1" stop-color="#13005F"/>
</linearGradient>
<clipPath id="clip0_21_41">
<rect width="100" height="100" fill="white"/>
</clipPath>
</defs>
</svg>
