<svg width="100" height="100" viewBox="0 0 100 100" fill="none" xmlns="http://www.w3.org/2000/svg">
<g clip-path="url(#clip0_21_44)">
<path d="M76.5625 0H23.4375C10.4933 0 0 10.4933 0 23.4375V76.5625C0 89.5067 10.4933 100 23.4375 100H76.5625C89.5067 100 100 89.5067 100 76.5625V23.4375C100 10.4933 89.5067 0 76.5625 0Z" fill="url(#paint0_linear_21_44)"/>
<path d="M16.4898 49.9977C16.4898 63.2614 24.198 74.7239 35.3754 80.1559L19.391 36.3606C17.4749 40.6514 16.4863 45.2984 16.4898 49.9977ZM72.6203 48.3067C72.6203 44.1657 71.1328 41.2977 69.857 39.0653C68.1582 36.3051 66.566 33.9676 66.566 31.2074C66.566 28.127 68.9023 25.2598 72.1929 25.2598C72.3418 25.2598 72.4824 25.2781 72.6273 25.2864C66.6656 19.8246 58.723 16.4899 49.9988 16.4899C38.2926 16.4899 27.9929 22.4961 22.0015 31.5938C22.7875 31.6172 23.5285 31.634 24.1578 31.634C27.6629 31.634 33.0883 31.2082 33.0883 31.2082C34.8945 31.102 35.1078 33.7551 33.3031 33.9688C33.3031 33.9688 31.4879 34.1824 29.4679 34.2883L41.6703 70.5844L49.0035 48.591L43.7828 34.2871C41.9785 34.1813 40.2691 33.9676 40.2691 33.9676C38.4633 33.8617 38.675 31.1008 40.4808 31.2074C40.4808 31.2074 46.0144 31.6324 49.307 31.6324C52.8117 31.6324 58.2375 31.2074 58.2375 31.2074C60.0453 31.1008 60.2574 33.7539 58.4523 33.9676C58.4523 33.9676 56.6332 34.1813 54.6172 34.2871L66.7269 70.3082L70.0691 59.1395C71.5179 54.5043 72.6203 51.1754 72.6203 48.3067Z" fill="white"/>
<path d="M50.5871 52.929L40.5332 82.1438C43.607 83.0492 46.7948 83.5089 49.9992 83.509C53.7891 83.5104 57.5517 82.8681 61.1266 81.6094C61.0336 81.4629 60.9538 81.3084 60.8883 81.1477L50.5871 52.929ZM79.402 33.9211C79.5543 35.0632 79.6298 36.2143 79.6277 37.3665C79.6277 40.7668 78.9926 44.5895 77.0797 49.3692L66.8441 78.9625C76.8063 73.1532 83.507 62.3606 83.507 49.9985C83.5074 44.1723 82.0195 38.6938 79.402 33.9211Z" fill="white"/>
<path d="M49.9992 10.9375C28.4609 10.9375 10.9375 28.4598 10.9375 49.9977C10.9375 71.5383 28.4609 89.0598 49.9992 89.0598C71.5363 89.0598 89.0625 71.5383 89.0625 49.9977C89.0617 28.4598 71.5363 10.9375 49.9992 10.9375ZM49.9992 87.2695C29.4484 87.2695 12.7285 70.5492 12.7285 49.9977C12.7285 29.4473 29.448 12.7285 49.9992 12.7285C70.5488 12.7285 87.2676 29.4473 87.2676 49.9977C87.2676 70.5492 70.5488 87.2695 49.9992 87.2695Z" fill="white"/>
</g>
<defs>
<linearGradient id="paint0_linear_21_44" x1="1.21337" y1="93.0451" x2="107.695" y2="77.5757" gradientUnits="userSpaceOnUse">
<stop stop-color="#0052CD"/>
<stop offset="1" stop-color="#13005F"/>
</linearGradient>
<clipPath id="clip0_21_44">
<rect width="100" height="100" fill="white"/>
</clipPath>
</defs>
</svg>
